<svg width="647" height="255" viewBox="0 0 647 255" fill="none" xmlns="http://www.w3.org/2000/svg">
<g clip-path="url(#clip0_1577_216)">
<path d="M357.44 28.0673L340.479 11.1064L323.518 28.0673L306.557 11.1064L289.553 28.0673L284 22.5141L306.557 0L323.518 16.9609L340.479 0L363.036 22.5141L357.44 28.0673Z" fill="currentColor"/>
<path d="M187.401 76.4166C185.119 73.9629 184 70.8204 184 66.9891C184 63.1578 185.119 60.0153 187.401 57.5185C189.682 55.0648 192.437 53.8164 195.709 53.8164C198.981 53.8164 201.477 55.0218 203.242 57.4324V54.0747H211.12V79.7313H203.242V75.9861C201.348 78.6982 198.809 80.0326 195.623 80.0326C192.394 80.0757 189.639 78.8704 187.401 76.4166ZM201.521 71.5952C202.64 70.476 203.242 68.9263 203.242 66.903C203.242 64.8797 202.683 63.33 201.521 62.2538C200.401 61.1776 199.067 60.618 197.603 60.618C196.14 60.618 194.848 61.1776 193.686 62.2538C192.567 63.3731 191.964 64.9228 191.964 66.9461C191.964 68.9693 192.524 70.519 193.686 71.5952C194.805 72.6714 196.14 73.2311 197.603 73.2311C199.067 73.2311 200.358 72.7145 201.521 71.5952Z" fill="currentColor"/>
<path d="M225.843 57.4324C227.608 55.0218 230.104 53.8164 233.376 53.8164C236.648 53.8164 239.403 55.0648 241.684 57.5185C243.966 59.9723 245.085 63.1578 245.085 66.9891C245.085 70.8204 243.966 73.9629 241.684 76.4166C239.403 78.8704 236.691 80.0757 233.462 80.0757C230.234 80.0757 227.694 78.7412 225.886 76.0292V92H218.008V54.1177H225.843V57.4324ZM235.356 71.6383C236.476 70.5621 237.078 69.0124 237.078 66.9891C237.078 64.9658 236.519 63.4161 235.356 62.2969C234.237 61.1776 232.903 60.661 231.439 60.661C229.975 60.661 228.684 61.2207 227.522 62.2969C226.402 63.3731 225.8 64.9228 225.8 66.9461C225.8 68.9693 226.359 70.519 227.522 71.6383C228.641 72.7575 229.975 73.2741 231.439 73.2741C232.903 73.2741 234.237 72.7145 235.356 71.6383Z" fill="currentColor"/>
<path d="M250.079 79.7743V45.7233H257.957V79.7743H250.079Z" fill="currentColor"/>
<path d="M264.844 79.7744V54.0747H272.722V79.7313L264.844 79.7744Z" fill="currentColor"/>
<path d="M301.263 54.0747L292.998 66.5156L301.263 79.7744H292.438L288.262 73.1019L284.13 79.7744H276.338L284.646 67.3765L276.338 54.1178H285.163L289.339 60.7902L293.471 54.1178H301.263V54.0747Z" fill="currentColor"/>
<path d="M306.342 76.4166C304.061 73.9629 302.942 70.8204 302.942 66.9891C302.942 63.1578 304.061 60.0153 306.342 57.5185C308.624 55.0648 311.379 53.8164 314.651 53.8164C317.922 53.8164 320.419 55.0218 322.184 57.4324V54.0747H330.062V79.7313H322.184V75.9861C320.29 78.6982 317.75 80.0327 314.565 80.0327C311.336 80.0757 308.624 78.8704 306.342 76.4166ZM320.462 71.5952C321.581 70.476 322.184 68.9263 322.184 66.903C322.184 64.8797 321.624 63.33 320.462 62.2538C319.343 61.1776 318.008 60.618 316.545 60.618C315.081 60.618 313.79 61.1776 312.627 62.2538C311.508 63.3731 310.906 64.9228 310.906 66.9461C310.906 68.9693 311.465 70.519 312.627 71.5952C313.747 72.6714 315.081 73.2311 316.545 73.2311C318.052 73.2741 319.343 72.7145 320.462 71.5952Z" fill="currentColor"/>
<path d="M366.234 47.4294V53.7334H357.675V79.7313H349.807V53.7334H341.248V47.4294H366.234Z" fill="currentColor"/>
<path d="M380.609 80.0994C378.093 80.0994 375.823 79.5626 373.799 78.4889C371.805 77.4153 370.225 75.8814 369.059 73.8875C367.924 71.8936 367.357 69.5622 367.357 66.8934C367.357 64.2552 367.939 61.9392 369.105 59.9453C370.271 57.9206 371.866 56.3715 373.891 55.2978C375.915 54.2242 378.185 53.6873 380.701 53.6873C383.216 53.6873 385.486 54.2242 387.511 55.2978C389.535 56.3715 391.131 57.9206 392.296 59.9453C393.462 61.9392 394.045 64.2552 394.045 66.8934C394.045 69.5315 393.447 71.8629 392.25 73.8875C391.084 75.8814 389.474 77.4153 387.419 78.4889C385.394 79.5626 383.124 80.0994 380.609 80.0994ZM380.609 73.2893C382.112 73.2893 383.385 72.7372 384.428 71.6328C385.501 70.5285 386.038 68.9487 386.038 66.8934C386.038 64.8381 385.517 63.2583 384.474 62.1539C383.462 61.0496 382.204 60.4974 380.701 60.4974C379.167 60.4974 377.894 61.0496 376.881 62.1539C375.869 63.2276 375.363 64.8074 375.363 66.8934C375.363 68.9487 375.854 70.5285 376.835 71.6328C377.848 72.7372 379.106 73.2893 380.609 73.2893Z" fill="currentColor"/>
<path d="M410.367 80.0994C407.851 80.0994 405.581 79.5626 403.557 78.4889C401.563 77.4153 399.983 75.8814 398.817 73.8875C397.682 71.8936 397.115 69.5622 397.115 66.8934C397.115 64.2552 397.698 61.9392 398.863 59.9453C400.029 57.9206 401.624 56.3715 403.649 55.2978C405.673 54.2242 407.943 53.6873 410.459 53.6873C412.974 53.6873 415.244 54.2242 417.269 55.2978C419.293 56.3715 420.889 57.9206 422.054 59.9453C423.22 61.9392 423.803 64.2552 423.803 66.8934C423.803 69.5315 423.205 71.8629 422.008 73.8875C420.843 75.8814 419.232 77.4153 417.177 78.4889C415.152 79.5626 412.882 80.0994 410.367 80.0994ZM410.367 73.2893C411.87 73.2893 413.143 72.7372 414.186 71.6328C415.26 70.5285 415.796 68.9487 415.796 66.8934C415.796 64.8381 415.275 63.2583 414.232 62.1539C413.22 61.0496 411.962 60.4974 410.459 60.4974C408.925 60.4974 407.652 61.0496 406.64 62.1539C405.627 63.2276 405.121 64.8074 405.121 66.8934C405.121 68.9487 405.612 70.5285 406.594 71.6328C407.606 72.7372 408.864 73.2893 410.367 73.2893Z" fill="currentColor"/>
<path d="M436.306 45.6809V79.7313H428.437V45.6809H436.306Z" fill="currentColor"/>
<path d="M452.913 80.0994C450.674 80.0994 448.68 79.716 446.931 78.9491C445.183 78.1822 443.802 77.1392 442.79 75.8201C441.778 74.4704 441.21 72.9672 441.088 71.3107H448.864C448.956 72.2003 449.37 72.9212 450.106 73.4734C450.843 74.0256 451.748 74.3016 452.821 74.3016C453.803 74.3016 454.554 74.1176 455.076 73.7495C455.628 73.3507 455.904 72.8445 455.904 72.231C455.904 71.4948 455.521 70.9579 454.754 70.6205C453.987 70.2524 452.744 69.8536 451.027 69.4241C449.186 68.9947 447.652 68.5499 446.425 68.0897C445.198 67.5989 444.14 66.8474 443.25 65.8351C442.361 64.7921 441.916 63.3963 441.916 61.6478C441.916 60.1753 442.315 58.8409 443.112 57.6446C443.94 56.4175 445.137 55.4512 446.701 54.7457C448.296 54.0401 450.183 53.6873 452.361 53.6873C455.582 53.6873 458.113 54.4849 459.953 56.0801C461.825 57.6752 462.898 59.7919 463.174 62.43H455.904C455.781 61.5404 455.383 60.8349 454.708 60.3134C454.064 59.7919 453.205 59.5311 452.131 59.5311C451.211 59.5311 450.505 59.7152 450.014 60.0833C449.524 60.4207 449.278 60.8962 449.278 61.5097C449.278 62.246 449.662 62.7981 450.428 63.1662C451.226 63.5344 452.453 63.9025 454.11 64.2706C456.011 64.7614 457.561 65.2522 458.757 65.743C459.953 66.2032 460.996 66.9701 461.886 68.0437C462.806 69.0867 463.282 70.4978 463.312 72.277C463.312 73.7801 462.883 75.1299 462.024 76.3263C461.196 77.4919 459.984 78.4122 458.389 79.0871C456.824 79.762 454.999 80.0994 452.913 80.0994Z" fill="currentColor"/>
<path fill-rule="evenodd" clip-rule="evenodd" d="M109.804 186.145L109.783 186.183C108.466 188.54 106.966 190.752 105.294 192.824V253.622H157.558C172.131 253.622 184.916 250.701 195.912 244.857C207.04 239.014 215.585 230.781 221.547 220.157C227.641 209.533 230.688 197.382 230.688 183.704C230.688 169.893 227.641 157.742 221.547 147.25C215.585 136.627 207.106 128.393 196.11 122.55C185.114 116.707 172.264 113.785 157.558 113.785H105.294V124.086C106.865 126.046 108.286 128.14 109.551 130.369C114.386 138.893 116.667 148.47 116.667 158.804C116.667 168.563 114.414 177.729 109.825 186.107L109.804 186.145ZM185.379 213.583C178.225 220.622 168.223 224.141 155.372 224.141H139.276V142.868H155.372C168.223 142.868 178.225 146.454 185.379 153.625C192.533 160.796 196.11 170.822 196.11 183.704C196.11 196.585 192.533 206.545 185.379 213.583Z" fill="currentColor"/>
<path d="M106.316 158.804C106.316 166.905 104.462 174.341 100.752 181.114C97.0427 187.754 91.346 193.132 83.6621 197.249C75.9782 201.366 66.4395 203.424 55.0461 203.424H33.9815V253.622H0V113.785H55.0461C66.1745 113.785 75.5807 115.711 83.2647 119.562C90.9486 123.413 96.7115 128.725 100.553 135.498C104.395 142.271 106.316 150.039 106.316 158.804ZM52.4627 176.333C58.9543 176.333 63.7899 174.806 66.9694 171.752C70.149 168.697 71.7388 164.381 71.7388 158.804C71.7388 153.226 70.149 148.91 66.9694 145.856C63.7899 142.802 58.9543 141.275 52.4627 141.275H33.9815V176.333H52.4627Z" fill="currentColor"/>
<path d="M566.864 142.254V253.406H532.883V142.254H566.864Z" fill="currentColor"/>
<path d="M647 224.523V253.406H629.711C617.39 253.406 607.786 250.418 600.896 244.443C594.007 238.334 590.563 228.44 590.563 214.762V170.54H577.05V142.254H590.563V115.163H624.544V142.254H646.801V170.54H624.544V215.16C624.544 218.48 625.339 220.871 626.929 222.332C628.519 223.792 631.168 224.523 634.878 224.523H647Z" fill="currentColor"/>
<path d="M399.614 197.631C399.614 186.21 401.734 176.184 405.973 167.552C410.345 158.92 416.24 152.28 423.659 147.632C431.078 142.984 439.358 140.66 448.5 140.66C455.786 140.66 462.41 142.188 468.372 145.242C474.466 148.296 479.235 152.413 482.68 157.592V106H516.661V253.406H482.68V237.471C479.5 242.783 474.93 247.032 468.968 250.219C463.139 253.406 456.316 255 448.5 255C439.358 255 431.078 252.676 423.659 248.028C416.24 243.247 410.345 236.541 405.973 227.909C401.734 219.144 399.614 209.052 399.614 197.631ZM482.68 197.83C482.68 189.331 480.295 182.625 475.526 177.711C470.889 172.798 465.192 170.341 458.436 170.341C451.679 170.341 445.916 172.798 441.147 177.711C436.51 182.492 434.192 189.132 434.192 197.631C434.192 206.13 436.51 212.903 441.147 217.949C445.916 222.863 451.679 225.32 458.436 225.32C465.192 225.32 470.889 222.863 475.526 217.949C480.295 213.036 482.68 206.329 482.68 197.83Z" fill="currentColor"/>
<path d="M228.895 228.076C229.463 227.162 230.012 226.232 230.544 225.285C237.626 212.922 241.038 198.964 241.038 183.704C241.038 168.343 237.639 154.365 230.53 142.097C230.002 141.159 229.457 140.236 228.895 139.33V113.785H319.712V141.075H262.877V170.557H305.404V197.05H262.877V253.622H228.895V228.076Z" fill="currentColor"/>
<path d="M329.209 253.622H413.665C406.64 248.102 401.011 241.03 396.744 232.606L396.701 232.521L396.66 232.435C395.698 230.447 394.834 228.412 394.065 226.332H363.19V195.656H389.283C389.467 186.249 390.978 177.446 393.953 169.361H363.19V141.075H414.659V113.785H329.209V253.622Z" fill="currentColor"/>
</g>
<defs>
<clipPath id="clip0_1577_216">
<rect width="647" height="255" fill="currentColor"/>
</clipPath>
</defs>
</svg>
