<svg width="869" height="119" viewBox="0 0 869 119" fill="none" xmlns="http://www.w3.org/2000/svg">
<g clip-path="url(#clip0_1576_218)">
<path d="M172.165 92.8624L132.404 53.1009L92.6422 92.8624L52.8807 53.1009L13.0183 92.8624L0 79.844L52.8807 27.0642L92.6422 66.8257L132.404 27.0642L185.284 79.844L172.165 92.8624Z" fill="white"/>
<path d="M221.917 81.9633C216.569 76.2111 213.945 68.8441 213.945 59.8624C213.945 50.8808 216.569 43.5138 221.917 37.6606C227.266 31.9083 233.725 28.9817 241.394 28.9817C249.064 28.9817 254.917 31.8074 259.055 37.4588V29.5872H277.523V89.734H259.055V80.9542C254.615 87.312 248.661 90.4404 241.193 90.4404C233.624 90.5413 227.165 87.7156 221.917 81.9633ZM255.018 70.6606C257.642 68.0367 259.055 64.4037 259.055 59.6606C259.055 54.9175 257.743 51.2844 255.018 48.7615C252.394 46.2386 249.266 44.9266 245.835 44.9266C242.404 44.9266 239.376 46.2386 236.651 48.7615C234.028 51.3854 232.615 55.0184 232.615 59.7615C232.615 64.5046 233.927 68.1376 236.651 70.6606C239.275 73.1835 242.404 74.4955 245.835 74.4955C249.266 74.4955 252.294 73.2844 255.018 70.6606Z" fill="white"/>
<path d="M312.037 37.4588C316.174 31.8074 322.027 28.9817 329.697 28.9817C337.367 28.9817 343.826 31.9083 349.174 37.6606C354.523 43.4129 357.147 50.8808 357.147 59.8624C357.147 68.8441 354.523 76.2111 349.174 81.9633C343.826 87.7156 337.468 90.5413 329.899 90.5413C322.33 90.5413 316.376 87.4129 312.138 81.0551V118.495H293.67V29.6881H312.037V37.4588ZM334.339 70.7615C336.963 68.2386 338.376 64.6055 338.376 59.8624C338.376 55.1193 337.064 51.4863 334.339 48.8624C331.716 46.2386 328.587 45.0276 325.156 45.0276C321.725 45.0276 318.697 46.3395 315.972 48.8624C313.349 51.3854 311.936 55.0184 311.936 59.7615C311.936 64.5046 313.248 68.1377 315.972 70.7615C318.596 73.3854 321.725 74.5964 325.156 74.5964C328.587 74.5964 331.716 73.2844 334.339 70.7615Z" fill="white"/>
<path d="M368.853 89.8348V10.0091H387.321V89.8348H368.853Z" fill="white"/>
<path d="M403.468 89.8349V29.5872H421.936V89.7339L403.468 89.8349Z" fill="white"/>
<path d="M488.844 29.5872L469.468 58.7523L488.844 89.8349H468.156L458.367 74.1927L448.679 89.8349H430.413L449.89 60.7706L430.413 29.6881H451.101L460.89 45.3303L470.578 29.6881H488.844V29.5872Z" fill="white"/>
<path d="M500.752 81.9633C495.404 76.2111 492.78 68.8441 492.78 59.8624C492.78 50.8808 495.404 43.5138 500.752 37.6606C506.101 31.9083 512.56 28.9817 520.229 28.9817C527.899 28.9817 533.752 31.8074 537.89 37.4588V29.5872H556.358V89.734H537.89V80.9542C533.449 87.312 527.495 90.4404 520.027 90.4404C512.459 90.5413 506.101 87.7156 500.752 81.9633ZM533.853 70.6606C536.477 68.0367 537.89 64.4037 537.89 59.6606C537.89 54.9175 536.578 51.2844 533.853 48.7615C531.229 46.2386 528.101 44.9266 524.67 44.9266C521.239 44.9266 518.211 46.2386 515.486 48.7615C512.862 51.3854 511.45 55.0184 511.45 59.7615C511.45 64.5046 512.761 68.1377 515.486 70.6606C518.11 73.1835 521.239 74.4955 524.67 74.4955C528.202 74.5964 531.229 73.2844 533.853 70.6606Z" fill="white"/>
<path d="M641.156 14.0088V28.787H621.092V89.7339H602.646V28.787H582.582V14.0088H641.156Z" fill="white"/>
<path d="M674.854 90.5969C668.957 90.5969 663.636 89.3384 658.89 86.8214C654.215 84.3045 650.512 80.7088 647.779 76.0344C645.118 71.36 643.788 65.8945 643.788 59.638C643.788 53.4535 645.154 48.024 647.887 43.3496C650.619 38.6033 654.359 34.9716 659.105 32.4546C663.852 29.9376 669.173 28.6792 675.07 28.6792C680.967 28.6792 686.289 29.9376 691.035 32.4546C695.781 34.9716 699.521 38.6033 702.254 43.3496C704.986 48.024 706.353 53.4535 706.353 59.638C706.353 65.8226 704.95 71.2881 702.146 76.0344C699.413 80.7088 695.637 84.3045 690.819 86.8214C686.073 89.3384 680.751 90.5969 674.854 90.5969ZM674.854 74.6321C678.378 74.6321 681.363 73.3376 683.808 70.7487C686.325 68.1598 687.583 64.4563 687.583 59.638C687.583 54.8198 686.361 51.1163 683.916 48.5274C681.542 45.9385 678.594 44.644 675.07 44.644C671.474 44.644 668.49 45.9385 666.117 48.5274C663.744 51.0443 662.557 54.7479 662.557 59.638C662.557 64.4563 663.708 68.1598 666.009 70.7487C668.382 73.3376 671.331 74.6321 674.854 74.6321Z" fill="white"/>
<path d="M744.616 90.5969C738.719 90.5969 733.398 89.3384 728.651 86.8214C723.977 84.3045 720.274 80.7088 717.541 76.0344C714.88 71.36 713.55 65.8945 713.55 59.638C713.55 53.4535 714.916 48.024 717.649 43.3496C720.381 38.6033 724.121 34.9716 728.867 32.4546C733.614 29.9376 738.935 28.6792 744.832 28.6792C750.729 28.6792 756.051 29.9376 760.797 32.4546C765.543 34.9716 769.283 38.6033 772.015 43.3496C774.748 48.024 776.115 53.4535 776.115 59.638C776.115 65.8226 774.712 71.2881 771.908 76.0344C769.175 80.7088 765.399 84.3045 760.581 86.8214C755.835 89.3384 750.513 90.5969 744.616 90.5969ZM744.616 74.6321C748.14 74.6321 751.125 73.3376 753.57 70.7487C756.087 68.1598 757.345 64.4563 757.345 59.638C757.345 54.8198 756.123 51.1163 753.677 48.5274C751.304 45.9385 748.356 44.644 744.832 44.644C741.236 44.644 738.252 45.9385 735.879 48.5274C733.506 51.0443 732.319 54.7479 732.319 59.638C732.319 64.4563 733.47 68.1598 735.771 70.7487C738.144 73.3376 741.093 74.6321 744.616 74.6321Z" fill="white"/>
<path d="M805.425 9.90967V89.7339H786.979V9.90967H805.425Z" fill="white"/>
<path d="M844.358 90.5969C839.108 90.5969 834.434 89.698 830.335 87.9001C826.236 86.1023 823 83.6572 820.626 80.5649C818.253 77.4007 816.923 73.877 816.635 69.9936H834.865C835.081 72.0791 836.052 73.7691 837.778 75.0635C839.504 76.358 841.625 77.0052 844.142 77.0052C846.443 77.0052 848.205 76.5737 849.428 75.7108C850.722 74.7759 851.37 73.5893 851.37 72.151C851.37 70.4251 850.471 69.1666 848.673 68.3756C846.875 67.5126 843.962 66.5777 839.935 65.5709C835.62 64.5641 832.025 63.5214 829.148 62.4427C826.272 61.292 823.791 59.5302 821.705 57.157C819.62 54.7119 818.577 51.4399 818.577 47.3408C818.577 43.8889 819.512 40.7607 821.381 37.956C823.323 35.0795 826.128 32.8142 829.795 31.1602C833.535 29.5062 837.958 28.6792 843.063 28.6792C850.614 28.6792 856.547 30.5489 860.862 34.2884C865.249 38.0279 867.766 42.99 868.413 49.1746H851.37C851.082 47.0891 850.147 45.4351 848.565 44.2125C847.055 42.99 845.041 42.3787 842.524 42.3787C840.367 42.3787 838.713 42.8102 837.562 43.6732C836.411 44.4642 835.836 45.5789 835.836 47.0172C835.836 48.7431 836.735 50.0375 838.533 50.9005C840.403 51.7635 843.279 52.6264 847.163 53.4894C851.621 54.64 855.253 55.7906 858.057 56.9413C860.862 58.02 863.307 59.8178 865.393 62.3348C867.55 64.7799 868.665 68.0879 868.737 72.2589C868.737 75.7827 867.73 78.9469 865.716 81.7515C863.775 84.4842 860.934 86.6417 857.195 88.2238C853.527 89.8059 849.248 90.5969 844.358 90.5969Z" fill="white"/>
</g>
<defs>
<clipPath id="clip0_1576_218">
<rect width="869" height="119" fill="white"/>
</clipPath>
</defs>
</svg>
